<svg width="98" height="23" viewBox="0 0 98 23" fill="none" xmlns="http://www.w3.org/2000/svg"><path d="M12.968 1.2C13.416 1.2 13.776 1.336 14.048 1.608C14.32 1.88 14.456 2.232 14.456 2.664V16.536C14.456 16.952 14.312 17.304 14.024 17.592C13.736 17.864 13.368 18 12.92 18C12.52 18 12.176 17.864 11.888 17.592C11.6 17.304 11.456 16.952 11.456 16.536V10.944H3.8V16.536C3.8 16.952 3.648 17.304 3.344 17.592C3.04 17.864 2.688 18 2.288 18C1.856 18 1.496 17.864 1.208 17.592C0.936 17.304 0.8 16.952 0.8 16.536V2.664C0.8 2.248 0.944 1.904 1.232 1.632C1.52 1.344 1.888 1.2 2.336 1.2C2.736 1.2 3.08 1.344 3.368 1.632C3.656 1.904 3.8 2.248 3.8 2.664V8.184H11.456V2.664C11.456 2.248 11.608 1.904 11.912 1.632C12.216 1.344 12.568 1.2 12.968 1.2ZM30.146 11.592C30.146 12.872 29.858 14.024 29.282 15.048C28.706 16.056 27.914 16.84 26.906 17.4C25.914 17.96 24.818 18.24 23.618 18.24C22.402 18.24 21.298 17.96 20.306 17.4C19.314 16.84 18.53 16.056 17.954 15.048C17.378 14.024 17.09 12.872 17.09 11.592C17.09 10.312 17.378 9.168 17.954 8.16C18.53 7.136 19.314 6.344 20.306 5.784C21.298 5.208 22.402 4.92 23.618 4.92C24.818 4.92 25.914 5.208 26.906 5.784C27.914 6.344 28.706 7.136 29.282 8.16C29.858 9.168 30.146 10.312 30.146 11.592ZM27.266 11.592C27.266 10.808 27.098 10.112 26.762 9.504C26.442 8.88 26.002 8.4 25.442 8.064C24.898 7.728 24.29 7.56 23.618 7.56C22.946 7.56 22.33 7.728 21.77 8.064C21.226 8.4 20.786 8.88 20.45 9.504C20.13 10.112 19.97 10.808 19.97 11.592C19.97 12.376 20.13 13.072 20.45 13.68C20.786 14.288 21.226 14.76 21.77 15.096C22.33 15.432 22.946 15.6 23.618 15.6C24.29 15.6 24.898 15.432 25.442 15.096C26.002 14.76 26.442 14.288 26.762 13.68C27.098 13.072 27.266 12.376 27.266 11.592ZM35.6722 16.536C35.6722 16.952 35.5282 17.304 35.2402 17.592C34.9682 17.864 34.6242 18 34.2082 18C33.8082 18 33.4722 17.864 33.2002 17.592C32.9282 17.304 32.7922 16.952 32.7922 16.536V1.704C32.7922 1.288 32.9282 0.943999 33.2002 0.671999C33.4882 0.383999 33.8402 0.24 34.2562 0.24C34.6562 0.24 34.9922 0.383999 35.2642 0.671999C35.5362 0.943999 35.6722 1.288 35.6722 1.704V16.536ZM41.7329 16.536C41.7329 16.952 41.5969 17.304 41.3249 17.592C41.0529 17.864 40.7089 18 40.2929 18C39.8769 18 39.5329 17.864 39.2609 17.592C38.9889 17.304 38.8529 16.952 38.8529 16.536V6.624C38.8529 6.208 38.9889 5.864 39.2609 5.592C39.5329 5.304 39.8769 5.16 40.2929 5.16C40.7089 5.16 41.0529 5.304 41.3249 5.592C41.5969 5.864 41.7329 6.208 41.7329 6.624V16.536ZM40.2689 3.6C39.7249 3.6 39.3409 3.512 39.1169 3.336C38.8929 3.16 38.7809 2.848 38.7809 2.4V1.944C38.7809 1.496 38.9009 1.184 39.1409 1.008C39.3809 0.831999 39.7649 0.743999 40.2929 0.743999C40.8529 0.743999 41.2449 0.831999 41.4689 1.008C41.6929 1.184 41.8049 1.496 41.8049 1.944V2.4C41.8049 2.864 41.6849 3.184 41.4449 3.36C41.2209 3.52 40.8289 3.6 40.2689 3.6ZM55.0848 0.24C55.5008 0.24 55.8448 0.375999 56.1168 0.647999C56.3888 0.919999 56.5248 1.272 56.5248 1.704V16.536C56.5248 16.952 56.3888 17.304 56.1168 17.592C55.8448 17.864 55.5008 18 55.0848 18C54.6688 18 54.3248 17.864 54.0528 17.592C53.7968 17.32 53.6608 16.976 53.6448 16.56C53.2448 17.024 52.7008 17.424 52.0128 17.76C51.3408 18.08 50.6288 18.24 49.8768 18.24C48.7728 18.24 47.7728 17.96 46.8768 17.4C45.9808 16.824 45.2688 16.032 44.7408 15.024C44.2288 14.016 43.9728 12.872 43.9728 11.592C43.9728 10.312 44.2288 9.168 44.7408 8.16C45.2528 7.136 45.9488 6.344 46.8288 5.784C47.7248 5.208 48.7088 4.92 49.7808 4.92C50.5488 4.92 51.2688 5.064 51.9408 5.352C52.6128 5.624 53.1808 5.976 53.6448 6.408V1.704C53.6448 1.288 53.7808 0.943999 54.0528 0.671999C54.3248 0.383999 54.6688 0.24 55.0848 0.24ZM50.2368 15.6C51.2768 15.6 52.1248 15.224 52.7808 14.472C53.4368 13.704 53.7648 12.744 53.7648 11.592C53.7648 10.44 53.4368 9.48 52.7808 8.712C52.1248 7.944 51.2768 7.56 50.2368 7.56C49.2128 7.56 48.3728 7.944 47.7168 8.712C47.0608 9.48 46.7328 10.44 46.7328 11.592C46.7328 12.744 47.0528 13.704 47.6928 14.472C48.3488 15.224 49.1968 15.6 50.2368 15.6ZM70.0379 4.92C70.4539 4.92 70.7979 5.056 71.0699 5.328C71.3419 5.6 71.4779 5.952 71.4779 6.384V16.536C71.4779 16.952 71.3419 17.304 71.0699 17.592C70.7979 17.864 70.4539 18 70.0379 18C69.6219 18 69.2779 17.864 69.0059 17.592C68.7499 17.32 68.6139 16.976 68.5979 16.56C68.1979 17.024 67.6539 17.424 66.9659 17.76C66.2939 18.08 65.5819 18.24 64.8299 18.24C63.7259 18.24 62.7259 17.96 61.8299 17.4C60.9339 16.824 60.2219 16.032 59.6939 15.024C59.1819 14.016 58.9259 12.872 58.9259 11.592C58.9259 10.312 59.1819 9.168 59.6939 8.16C60.2059 7.136 60.9019 6.344 61.7819 5.784C62.6779 5.208 63.6619 4.92 64.7339 4.92C65.5019 4.92 66.2219 5.064 66.8939 5.352C67.5659 5.624 68.1339 5.976 68.5979 6.408V6.384C68.5979 5.968 68.7339 5.624 69.0059 5.352C69.2779 5.064 69.6219 4.92 70.0379 4.92ZM65.1899 15.6C66.2299 15.6 67.0779 15.224 67.7339 14.472C68.3899 13.704 68.7179 12.744 68.7179 11.592C68.7179 10.44 68.3899 9.48 67.7339 8.712C67.0779 7.944 66.2299 7.56 65.1899 7.56C64.1659 7.56 63.3259 7.944 62.6699 8.712C62.0139 9.48 61.6859 10.44 61.6859 11.592C61.6859 12.744 62.0059 13.704 62.6459 14.472C63.3019 15.224 64.1499 15.6 65.1899 15.6ZM83.8458 5.16C84.2618 5.16 84.6058 5.304 84.8778 5.592C85.1498 5.864 85.2858 6.208 85.2858 6.624V16.824C85.2858 18.904 84.7258 20.416 83.6058 21.36C82.4858 22.32 80.9898 22.8 79.1178 22.8C78.5738 22.8 78.0138 22.752 77.4378 22.656C76.8778 22.576 76.4218 22.464 76.0698 22.32C75.2858 21.984 74.8938 21.52 74.8938 20.928C74.8938 20.816 74.9178 20.688 74.9658 20.544C75.0618 20.192 75.2218 19.92 75.4458 19.728C75.6858 19.552 75.9418 19.464 76.2138 19.464C76.3738 19.464 76.5258 19.488 76.6698 19.536C76.7818 19.584 76.9738 19.664 77.2458 19.776C77.5338 19.888 77.8298 19.976 78.1338 20.04C78.4538 20.12 78.7818 20.16 79.1178 20.16C80.2538 20.16 81.0858 19.912 81.6138 19.416C82.1578 18.936 82.4298 18.104 82.4298 16.92V16.68C81.5978 17.72 80.3018 18.24 78.5418 18.24C77.7098 18.24 76.9738 18.048 76.3338 17.664C75.6938 17.264 75.1978 16.72 74.8458 16.032C74.4938 15.328 74.3178 14.528 74.3178 13.632V6.624C74.3178 6.208 74.4538 5.864 74.7258 5.592C74.9978 5.304 75.3418 5.16 75.7578 5.16C76.1738 5.16 76.5178 5.304 76.7898 5.592C77.0618 5.864 77.1978 6.208 77.1978 6.624V12.768C77.1978 13.776 77.4138 14.504 77.8458 14.952C78.2938 15.384 78.9418 15.6 79.7898 15.6C80.6218 15.6 81.2618 15.36 81.7098 14.88C82.1738 14.384 82.4058 13.68 82.4058 12.768V6.624C82.4058 6.208 82.5418 5.864 82.8138 5.592C83.0858 5.304 83.4298 5.16 83.8458 5.16ZM87.4254 16.008C87.2814 15.816 87.2094 15.576 87.2094 15.288C87.2094 14.872 87.4174 14.52 87.8334 14.232C88.0574 14.088 88.2894 14.016 88.5294 14.016C88.8654 14.016 89.1854 14.168 89.4894 14.472C89.9694 14.968 90.4654 15.336 90.9774 15.576C91.5054 15.816 92.1374 15.936 92.8734 15.936C94.1214 15.888 94.7454 15.416 94.7454 14.52C94.7454 14.056 94.5294 13.704 94.0974 13.464C93.6814 13.224 93.0254 12.984 92.1294 12.744C91.2014 12.488 90.4414 12.232 89.8494 11.976C89.2734 11.72 88.7694 11.336 88.3374 10.824C87.9214 10.296 87.7134 9.592 87.7134 8.712C87.7134 7.944 87.9294 7.28 88.3614 6.72C88.8094 6.144 89.3854 5.704 90.0894 5.4C90.8094 5.08 91.5694 4.92 92.3694 4.92C93.1854 4.92 94.0014 5.072 94.8174 5.376C95.6334 5.68 96.2734 6.128 96.7374 6.72C96.9454 6.976 97.0494 7.264 97.0494 7.584C97.0494 7.952 96.8974 8.256 96.5934 8.496C96.3694 8.672 96.1134 8.76 95.8254 8.76C95.4734 8.76 95.1854 8.648 94.9614 8.424C94.6734 8.072 94.2974 7.792 93.8334 7.584C93.3854 7.376 92.8734 7.272 92.2974 7.272C91.0814 7.272 90.4734 7.712 90.4734 8.592C90.4734 8.944 90.5854 9.232 90.8094 9.456C91.0334 9.664 91.3134 9.832 91.6494 9.96C92.0014 10.072 92.4894 10.216 93.1134 10.392C93.9774 10.632 94.6974 10.88 95.2734 11.136C95.8494 11.392 96.3374 11.784 96.7374 12.312C97.1374 12.84 97.3374 13.536 97.3374 14.4C97.3374 15.184 97.1054 15.872 96.6414 16.464C96.1774 17.04 95.5774 17.48 94.8414 17.784C94.1214 18.088 93.3774 18.24 92.6094 18.24C91.5534 18.24 90.5694 18.064 89.6574 17.712C88.7454 17.36 88.0014 16.792 87.4254 16.008Z" fill="#1958B6"/></svg>