<svg width="21" height="20" viewBox="0 0 21 20" fill="none" xmlns="http://www.w3.org/2000/svg">
<path fill-rule="evenodd" clip-rule="evenodd" d="M19.2604 10.3247C20.5109 14.9607 18.4424 16.9702 14.5787 16.19C14.2572 17.0194 13.9294 17.8451 13.4114 18.5608C19.5782 20.1163 22.0709 15.5687 19.2604 10.3247ZM7.0867 7.78017H9.71534C10.4343 7.95861 10.8684 8.33677 11.0602 8.77614C11.163 9.01192 11.1988 9.26824 11.1733 9.52169C11.1475 9.77847 11.0579 10.0333 10.911 10.2625C10.5963 10.7533 10.0146 11.1191 9.22326 11.133C8.76085 11.0525 8.52776 11.5469 8.91967 11.9264L11.5537 14.3767H7.0867C6.9527 14.3767 6.84308 14.2668 6.84308 14.1324V8.0245C6.84308 7.89011 6.9527 7.78017 7.0867 7.78017ZM11.4918 7.78017H13.3228C13.4568 7.78017 13.5664 7.89011 13.5664 8.0245V14.1324C13.5664 14.2668 13.4568 14.3767 13.3228 14.3767H12.895L10.2173 11.8857C10.8614 11.6689 11.3583 11.2565 11.6787 10.7568C11.9028 10.4073 12.0399 10.0132 12.0804 9.61124C12.1211 9.20609 12.0628 8.79356 11.8958 8.41085C11.798 8.18686 11.6638 7.97409 11.4918 7.78017ZM5.12024 3.72393C8.49813 0.319834 11.2676 1.11164 12.5256 4.85767C13.4026 4.72226 14.2796 4.59407 15.1565 4.68614C13.4163 -1.44792 8.24312 -1.33915 5.12024 3.72393ZM6.38936 19.2092C1.761 17.9774 1.06003 15.1761 3.66564 12.2103C3.11021 11.5163 2.56106 10.8187 2.20205 10.011C-2.22453 14.5895 0.45602 19.0284 6.38936 19.2092Z" fill="#292D78"/>
</svg>
