<svg width="108" height="32" viewBox="0 0 108 32" fill="none" xmlns="http://www.w3.org/2000/svg"><path fill-rule="evenodd" clip-rule="evenodd" d="M14.5189 28.8188C16.2937 27.1772 17.1804 24.8629 17.1804 21.876H17.1818V7.61124H12.0833V9.48249H12.0192C11.0196 7.97272 9.51246 7.21851 7.50206 7.21851C5.25465 7.21851 3.44222 8.02028 2.06477 9.62518C0.688722 11.2287 0 13.3935 0 16.1195C0 18.552 0.619014 20.4912 1.85565 21.9371C3.09228 23.3858 4.76529 24.1087 6.87328 24.1087C9.14161 24.1087 10.8578 23.205 12.0192 21.4031H12.0833V22.6778C12.0833 24.1984 11.6107 25.4011 10.664 26.2871C9.7174 27.1718 8.38317 27.6148 6.66276 27.6148C4.9312 27.6148 3.21636 27.1337 1.51686 26.1689V30.353C2.81763 30.97 4.58126 31.2798 6.80776 31.2798C10.1733 31.2798 12.7442 30.459 14.5189 28.8188ZM11.4545 14.7283V15.9392C11.4545 17.1746 11.1481 18.1697 10.5367 18.9218C9.9252 19.6739 9.12518 20.0513 8.13531 20.0513C7.13628 20.0513 6.34805 19.6791 5.77193 18.9373C5.19713 18.1942 4.90907 17.1837 4.90907 15.9082C4.90907 14.4233 5.21153 13.2719 5.81776 12.4539C6.42399 11.6371 7.25674 11.2288 8.31862 11.2288C9.24695 11.2288 10.0024 11.5687 10.5838 12.2523C11.1638 12.9359 11.4545 13.7604 11.4545 14.7283Z" fill="#FF6D38"/><path fill-rule="evenodd" clip-rule="evenodd" d="M20.3799 21.8104C21.9664 23.3106 24.1453 24.0614 26.9181 24.0614C29.7344 24.0614 31.9513 23.2876 33.5714 21.7399C35.1902 20.1922 36.0002 18.0862 36.0002 15.4204C36.0002 12.9525 35.2154 10.9685 33.6444 9.4682C32.0748 7.96795 29.9085 7.21851 27.147 7.21851C24.3419 7.21851 22.1152 7.96795 20.4698 9.4682C18.823 10.9685 18.0002 13.046 18.0002 15.7023C18.0002 18.2746 18.7935 20.3115 20.3799 21.8104ZM23.8904 12.3789C24.5459 11.6113 25.4641 11.2288 26.6465 11.2288C29.0631 11.2288 30.2728 12.6581 30.2728 15.5205C30.2728 18.5406 29.0741 20.0513 26.6779 20.0513C24.1655 20.0513 22.9092 18.5806 22.9092 15.6394C22.9092 14.2347 23.2349 13.1478 23.8904 12.3789Z" fill="#FF6D38"/><path fill-rule="evenodd" clip-rule="evenodd" d="M38.4388 4.10962C38.9746 4.57805 39.6613 4.81226 40.5002 4.81226C41.3501 4.81226 42.0395 4.58701 42.5698 4.13266C43.0987 3.67831 43.3639 3.0947 43.3639 2.38437C43.3639 1.68301 43.1001 1.1122 42.5698 0.666806C42.0395 0.222695 41.3501 0 40.5002 0C39.6599 0 38.9746 0.222695 38.4388 0.666806C37.9045 1.11092 37.6366 1.68301 37.6366 2.38437C37.6366 3.06654 37.9031 3.64119 38.4388 4.10962ZM37.6364 23.2593H42.5455V7.21847H37.6364V23.2593Z" fill="#2276E3"/><path fill-rule="evenodd" clip-rule="evenodd" d="M50.9166 21.8108H50.9807C52.0236 23.3098 53.5628 24.06 55.5955 24.0613C57.8429 24.0613 59.6386 23.2531 60.9826 21.6408C62.3279 20.027 62.9999 17.8885 62.9999 15.2237C62.9999 12.7653 62.4255 10.8291 61.2739 9.41512C60.1224 7.9984 58.4828 7.29139 56.3539 7.29139C54.0298 7.29139 52.2397 8.22373 50.9807 10.0871H50.9166V0H45.8181V23.6687H50.9166V21.8108ZM50.7273 16.6267V15.0566C50.7273 13.9206 51.043 12.9992 51.6772 12.2898C52.3113 11.5829 53.1113 11.2288 54.0743 11.2288C55.0992 11.2288 55.8886 11.5855 56.4412 12.2975C56.9964 13.0109 57.2727 14.0007 57.2727 15.2659C57.2727 16.7908 56.9714 17.9694 56.3675 18.8029C55.7623 19.6351 54.9137 20.0513 53.8165 20.0513C52.9139 20.0513 52.1732 19.7269 51.5943 19.0795C51.0154 18.4307 50.7273 17.614 50.7273 16.6267Z" fill="#2276E3"/><path fill-rule="evenodd" clip-rule="evenodd" d="M64.6205 4.10962C65.1563 4.57805 65.843 4.81226 66.6819 4.81226C67.5318 4.81226 68.2225 4.58701 68.7501 4.13266C69.2818 3.67831 69.5456 3.0947 69.5456 2.38437C69.5456 1.68301 69.2818 1.1122 68.7501 0.666806C68.2225 0.222695 67.5318 0 66.6819 0C65.8416 0 65.1563 0.222695 64.6205 0.666806C64.0834 1.11092 63.8183 1.68301 63.8183 2.38437C63.8183 3.06654 64.0834 3.63991 64.6205 4.10962ZM63.8181 23.2593H68.7272V7.21847H63.8181V23.2593Z" fill="#2276E3"/><path fill-rule="evenodd" clip-rule="evenodd" d="M77.0975 21.8108H77.163C78.206 23.3098 79.7439 24.06 81.7767 24.0613C84.0243 24.0613 85.8216 23.2531 87.1657 21.6408C88.5112 20.027 89.1818 17.8885 89.1818 15.2237C89.1818 12.7653 88.6074 10.8291 87.4571 9.41512C86.3054 7.9984 84.6657 7.29139 82.5366 7.29139C80.2124 7.29139 78.4207 8.22373 77.163 10.0871H77.0975V0H72V23.6687H77.0975V21.8108ZM76.909 16.6267V15.0566C76.909 13.9206 77.2274 12.9992 77.8591 12.2898C78.492 11.5829 79.2934 11.2288 80.2567 11.2288C81.2818 11.2288 82.0714 11.5855 82.6241 12.2975C83.1768 13.0109 83.4544 14.0007 83.4544 15.2659C83.4544 16.7908 83.1531 17.9707 82.5491 18.8029C81.945 19.6351 81.095 20.0513 79.9988 20.0513C79.0974 20.0513 78.3539 19.7269 77.7775 19.0795C77.1985 18.4307 76.909 17.614 76.909 16.6267Z" fill="#2276E3"/><path fill-rule="evenodd" clip-rule="evenodd" d="M92.3795 21.8104C93.9658 23.3106 96.1446 24.0614 98.9172 24.0614C101.733 24.0614 103.95 23.2876 105.571 21.7399C107.191 20.1922 108 18.0862 108 15.4204C108 12.9525 107.215 10.9685 105.644 9.4682C104.073 7.96795 101.909 7.21851 99.146 7.21851C96.3411 7.21851 94.116 7.96795 92.4693 9.4682C90.8241 10.9685 90 13.046 90 15.7023C90 18.2746 90.7932 20.3115 92.3795 21.8104ZM95.8928 12.3789C96.5482 11.6113 97.4649 11.2288 98.6484 11.2288C101.065 11.2288 102.273 12.6581 102.273 15.5205C102.273 18.5406 101.074 20.0513 98.6785 20.0513C96.1651 20.0513 94.9091 18.5806 94.9091 15.6394C94.9091 14.2347 95.2375 13.1478 95.8928 12.3789Z" fill="#2276E3"/></svg>