<svg width="91" height="91" viewBox="0 0 91 91" fill="none" xmlns="http://www.w3.org/2000/svg">
<g clip-path="url(#clip0_166_10203)">
<path d="M14.395 45.5558C14.395 36.6778 21.617 29.4558 30.491 29.4558C39.367 29.4558 46.59 36.6778 46.59 45.5558C46.59 45.6448 46.565 45.7258 46.541 45.8068H48.518C48.493 45.7258 48.467 45.6448 48.467 45.5558C48.467 41.7378 49.809 38.2318 52.037 35.4688C48.125 27.1268 39.729 21.7588 30.491 21.7588C17.369 21.7588 6.69404 32.4338 6.69404 45.5558C6.69404 45.6448 6.66904 45.7258 6.64404 45.8068H14.446C14.42 45.7258 14.395 45.6448 14.395 45.5558Z" fill="#FAE58F"/>
<path d="M64.563 40.4766C61.762 40.4766 59.485 42.7556 59.485 45.5556C59.485 45.6446 59.462 45.7256 59.436 45.8066H69.694C69.667 45.7256 69.643 45.6446 69.643 45.5556C69.643 42.7556 67.363 40.4766 64.563 40.4766Z" fill="#F9BA8F"/>
<path d="M50.074 45.8072H57.877C57.85 45.7262 57.826 45.6452 57.826 45.5562C57.826 41.8402 60.846 38.8192 64.562 38.8192C68.277 38.8192 71.302 41.8402 71.302 45.5562C71.302 45.6452 71.277 45.7262 71.251 45.8072H79.056C79.031 45.7262 79.007 45.6452 79.007 45.5562C79.007 37.5942 72.527 31.1152 64.562 31.1152C56.601 31.1152 50.126 37.5942 50.126 45.5562C50.127 45.6452 50.102 45.7262 50.074 45.8072Z" fill="#F9BA8F"/>
<path d="M3.62207 47.4648C5.67507 62.3388 14.7851 74.5298 28.1481 80.2268H60.3521C73.7151 74.5308 82.8271 62.3388 84.8811 47.4648H3.62207Z" fill="#BAA1B6"/>
<path d="M27.0042 79.4971V87.0641H56.9492C59.4572 87.0641 61.4941 85.0241 61.4941 82.5151V79.4961C61.2751 79.5961 27.2262 79.5961 27.0042 79.4971Z" fill="#806875"/>
<path d="M30.4911 40.4766C27.6911 40.4766 25.4121 42.7556 25.4121 45.5556C25.4121 45.6446 25.3871 45.7256 25.3621 45.8066H35.6201C35.5951 45.7256 35.5701 45.6446 35.5701 45.5556C35.5701 42.7556 33.2911 40.4766 30.4911 40.4766Z" fill="#FAE58F"/>
<path d="M44.9821 45.8072C44.9551 45.7262 44.9321 45.6452 44.9321 45.5562C44.9321 37.5942 38.4531 31.1152 30.4911 31.1152C22.5292 31.1152 16.0542 37.5942 16.0542 45.5562C16.0542 45.6452 16.0312 45.7262 16.0042 45.8072H23.8042C23.7772 45.7262 23.7542 45.6452 23.7542 45.5562C23.7542 41.8402 26.7752 38.8192 30.4911 38.8192C34.2071 38.8192 37.2292 41.8402 37.2292 45.5562C37.2292 45.6452 37.2062 45.7262 37.1792 45.8072H44.9821Z" fill="#FAE58F"/>
<path d="M79.8361 47.749C78.6001 47.749 77.5981 46.746 77.5981 45.509C77.5981 38.322 71.7501 32.478 64.5631 32.478C57.3791 32.478 51.5381 38.323 51.5381 45.509C51.5381 46.746 50.5341 47.749 49.2961 47.749C48.0621 47.749 47.0581 46.746 47.0581 45.509C47.0581 35.854 54.9131 27.998 64.5641 27.998C74.2201 27.998 82.0781 35.854 82.0781 45.509C82.0761 46.746 81.0721 47.749 79.8361 47.749Z" fill="#434B56"/>
<path d="M70.4732 47.7494C69.2372 47.7494 68.2352 46.7463 68.2352 45.5093C68.2352 43.4873 66.5892 41.8404 64.5632 41.8404C62.5402 41.8404 60.8952 43.4873 60.8952 45.5093C60.8952 46.7463 59.8932 47.7494 58.6572 47.7494C57.4212 47.7494 56.4192 46.7463 56.4192 45.5093C56.4192 41.0163 60.0732 37.3604 64.5642 37.3604C69.0562 37.3604 72.7122 41.0163 72.7122 45.5093C72.7112 46.7463 71.7092 47.7494 70.4732 47.7494Z" fill="#434B56"/>
<path d="M45.7611 47.749C44.5231 47.749 43.5201 46.746 43.5201 45.509C43.5201 38.322 37.6751 32.478 30.4901 32.478C23.3071 32.478 17.4631 38.323 17.4631 45.509C17.4631 46.746 16.4601 47.749 15.2241 47.749C13.9881 47.749 12.9851 46.746 12.9851 45.509C12.9851 35.854 20.8371 27.998 30.4901 27.998C40.1461 27.999 48.0001 35.854 48.0001 45.509C48.0001 46.746 46.9981 47.749 45.7611 47.749Z" fill="#434B56"/>
<path d="M36.3991 47.7494C35.1631 47.7494 34.1601 46.7463 34.1601 45.5093C34.1601 43.4873 32.5131 41.8404 30.4901 41.8404C28.4681 41.8404 26.8211 43.4873 26.8211 45.5093C26.8211 46.7463 25.8191 47.7494 24.5821 47.7494C23.3441 47.7494 22.3411 46.7463 22.3411 45.5093C22.3411 41.0163 25.9971 37.3604 30.4901 37.3604C34.9831 37.3604 38.6391 41.0163 38.6391 45.5093C38.6401 46.7463 37.6371 47.7494 36.3991 47.7494Z" fill="#434B56"/>
<path d="M5.86405 47.7496C4.62605 47.7496 3.62305 46.7466 3.62305 45.5096C3.62305 30.6946 15.677 18.6426 30.49 18.6426C41.108 18.6426 50.751 24.9176 55.062 34.6246C55.562 35.7566 55.054 37.0796 53.921 37.5806C52.79 38.0806 51.468 37.5726 50.966 36.4406C47.376 28.3496 39.337 23.1216 30.49 23.1216C18.145 23.1216 8.10205 33.1646 8.10205 45.5096C8.10305 46.7466 7.10105 47.7496 5.86405 47.7496Z" fill="#434B56"/>
<path d="M66.0722 32.4743C65.4842 32.4743 64.8982 32.2453 64.4592 31.7873C63.6002 30.8963 63.6272 29.4793 64.5182 28.6203L87.0662 6.92633C87.9592 6.06833 89.3772 6.09733 90.2322 6.98633C91.0892 7.87933 91.0622 9.29633 90.1712 10.1533L67.6252 31.8473C67.1892 32.2663 66.6292 32.4743 66.0722 32.4743Z" fill="#434B56"/>
<path d="M60.5822 32.0631C60.1952 32.0631 59.8032 31.9621 59.4452 31.7501C58.3812 31.1211 58.0272 29.7491 58.6562 28.6841L74.4392 1.94915C75.0682 0.885146 76.4432 0.530146 77.5052 1.15815C78.5692 1.78615 78.9232 3.15915 78.2942 4.22615L62.5122 30.9621C62.0942 31.6701 61.3482 32.0631 60.5822 32.0631Z" fill="#434B56"/>
<path d="M56.949 90.0858H23.937V81.0078H28.416V85.6088H56.949C58.679 85.6088 60.084 84.2018 60.084 82.4688V81.0078H64.564V82.4688C64.564 86.6688 61.148 90.0858 56.949 90.0858Z" fill="#434B56"/>
<path d="M60.9751 83.2484H53.0121V78.7694H60.0631C72.0731 73.5454 80.7451 62.6544 83.2041 49.8814H5.30109C7.75809 62.6534 16.4271 73.5474 28.4391 78.7694H36.6461V83.2484H27.5271L27.1101 83.0704C12.6311 76.9704 2.41809 63.5004 0.45809 47.9204L0.14209 45.4014H88.3641L88.0461 47.9204C86.0841 63.5004 75.8691 76.9704 61.3911 83.0704L60.9751 83.2484Z" fill="#434B56"/>
<path d="M63.623 71.1978C62.822 71.1978 62.049 70.7668 61.646 70.0128C61.062 68.9238 61.472 67.5668 62.564 66.9838C66.906 64.6628 70.082 60.6028 71.281 55.8478C71.584 54.6508 72.801 53.9208 74 54.2238C75.199 54.5268 75.926 55.7448 75.623 56.9438C74.117 62.9198 70.127 68.0178 64.676 70.9328C64.34 71.1128 63.979 71.1978 63.623 71.1978Z" fill="white"/>
<path d="M58.2871 74.673C56.8281 74.673 55.6411 73.485 55.6411 72.026C55.6411 70.564 56.8291 69.377 58.2871 69.377C59.7481 69.377 60.9351 70.565 60.9351 72.026C60.9361 73.485 59.7481 74.673 58.2871 74.673Z" fill="white"/>
</g>
<defs>
<clipPath id="clip0_166_10203">
<rect width="91" height="91" fill="white"/>
</clipPath>
</defs>
</svg>
